<?xml version="1.0" encoding="UTF-8" standalone="no"?>
<!-- Created with sK1/UniConvertor (http://sk1project.org/) -->

<svg
        width="429.81pt"
        height="136.52pt"
        viewBox="0 0 429.81 136.52"
        fill-rule="evenodd"
        version="1.1"
        id="svg21"
        xmlns="http://www.w3.org/2000/svg"
        xmlns:svg="http://www.w3.org/2000/svg">
    <defs
            id="defs21"/>
    <g
            id="g21"
            transform="translate(-3.7500001,-702.37002)">
        <g
                id="g20">
            <path
                    style="fill:#019245;stroke:none"
                    d="m 72.44,702.37 c -37.94,0 -68.69,30.48 -68.69,68.08 v 0.36 c 0,37.6 30.75,68.08 68.69,68.08 37.94,0 68.69,-30.48 68.69,-68.08 v -0.36 c 0,-37.6 -30.75,-68.08 -68.69,-68.08 z m 10.33,32.97 c 10.21,0.63 20.4,2.13 30.45,4.51 l -16.83,9.61 c -8.15,-1.2 -16.39,-1.8 -24.65,-1.8 -8.25,0 -16.49,0.6 -24.64,1.8 l -16.83,-9.61 c 10.04,-2.38 20.24,-3.88 30.45,-4.51 l 11.02,-10.91 z m 14.68,62.59 c -5.58,8.08 -11.91,15.79 -18.98,23.03 v -19.02 c 5.23,-6.32 9.9,-12.93 14,-19.77 4.13,-6.86 7.71,-13.96 10.73,-21.22 l 17.11,-9.78 c -3.01,9.59 -6.87,18.97 -11.58,28.02 l 3.98,14.69 z m -74.27,-46.76 17.11,9.78 c 3.02,7.26 6.59,14.35 10.72,21.22 4.11,6.84 8.78,13.45 14.01,19.77 v 19.02 c -7.07,-7.24 -13.4,-14.95 -18.98,-23.03 l -15.27,-4.05 3.98,-14.69 c -4.7,-9.05 -8.56,-18.43 -11.57,-28.02 z m 28.59,8.64 c 13.25,-1.7 26.7,-1.7 39.95,0 C 86.51,771.63 79.8,782.7 71.74,792.84 63.69,782.7 56.98,771.63 51.77,759.81 Z"
                    id="path1"/>
            <g
                    id="g8">
                <path
                        style="fill:#017638;stroke:none"
                        d="m 186.51,737.43 v 23.98 c 0,3.45 -0.89,6.12 -2.63,7.97 -1.73,1.85 -4.14,2.78 -7.17,2.78 -3.02,0 -5.4,-0.93 -7.14,-2.78 -1.73,-1.85 -2.6,-4.52 -2.6,-7.97 v -23.98 h -11.08 v 25.55 c 0,3.88 0.74,7.22 2.26,10.02 1.49,2.8 3.55,4.93 6.2,6.38 2.64,1.44 5.68,2.15 9.11,2.15 2.68,0 5.18,-0.54 7.48,-1.61 2.29,-1.08 4.14,-2.55 5.57,-4.44 v 5.49 h 11.16 v -43.54 z"
                        id="path2"/>
                <path
                        style="fill:#017638;stroke:none"
                        d="m 234.47,736.8 c -2.75,0 -5.27,0.54 -7.57,1.62 -2.3,1.08 -4.18,2.54 -5.66,4.44 v -5.43 h -11.05 v 43.54 h 11.05 v -24.04 c 0,-3.45 0.87,-6.12 2.65,-7.98 1.78,-1.85 4.18,-2.8 7.24,-2.8 2.99,0 5.38,0.95 7.11,2.8 1.74,1.86 2.63,4.53 2.63,7.98 v 24.04 h 11.08 v -25.55 c 0,-5.86 -1.63,-10.43 -4.84,-13.71 -3.21,-3.27 -7.44,-4.91 -12.64,-4.91 z"
                        id="path3"/>
                <path
                        style="fill:#017638;stroke:none"
                        d="m 264.07,737.43 v 43.54 h 11.05 v -43.54 z m 5.61,-5.2 c 1.95,0 3.56,-0.6 4.86,-1.83 1.28,-1.23 1.93,-2.76 1.93,-4.61 0,-1.83 -0.65,-3.36 -1.93,-4.59 -1.3,-1.23 -2.91,-1.85 -4.86,-1.85 -1.95,0 -3.57,0.62 -4.88,1.85 -1.3,1.23 -1.93,2.76 -1.93,4.59 0,1.85 0.63,3.38 1.93,4.61 1.31,1.23 2.93,1.83 4.88,1.83 z"
                        id="path4"/>
                <path
                        style="fill:#017638;stroke:none"
                        d="m 307.5,737.43 h -7.68 v -1.81 c 0,-2.46 0.52,-4.16 1.58,-5.11 1.05,-0.95 2.93,-1.38 5.62,-1.34 v -9.26 c -6.16,-0.15 -10.78,1.03 -13.83,3.53 -3.08,2.52 -4.6,6.45 -4.6,11.79 v 2.2 h -4.96 v 9.05 h 4.96 v 34.49 h 11.23 v -34.49 h 7.68 z"
                        id="path5"/>
                <path
                        style="fill:#017638;stroke:none"
                        d="m 316.32,737.43 v 43.54 h 11.06 v -43.54 z m 5.62,-5.2 c 1.95,0 3.55,-0.6 4.86,-1.83 1.28,-1.23 1.93,-2.76 1.93,-4.61 0,-1.83 -0.65,-3.36 -1.93,-4.59 -1.31,-1.23 -2.91,-1.85 -4.86,-1.85 -1.95,0 -3.58,0.62 -4.88,1.85 -1.3,1.23 -1.93,2.76 -1.93,4.59 0,1.85 0.63,3.38 1.93,4.61 1.3,1.23 2.93,1.83 4.88,1.83 z"
                        id="path6"/>
                <path
                        style="fill:#017638;stroke:none"
                        d="m 348.13,755.12 c 0.41,-2.93 1.56,-5.22 3.43,-6.88 1.86,-1.63 4.18,-2.47 6.94,-2.47 2.9,0 5.35,0.86 7.35,2.56 1.99,1.7 3.03,3.96 3.08,6.79 z m 32.26,3.14 c 0,-4.24 -0.91,-8.01 -2.73,-11.29 -1.82,-3.27 -4.36,-5.79 -7.65,-7.58 -3.3,-1.77 -7.03,-2.67 -11.19,-2.67 -4.33,0 -8.17,0.92 -11.49,2.75 -3.32,1.86 -5.9,4.46 -7.74,7.87 -1.87,3.4 -2.78,7.37 -2.78,11.87 0,4.46 0.94,8.38 2.8,11.79 1.87,3.4 4.49,6.05 7.85,7.9 3.34,1.86 7.13,2.78 11.36,2.78 5.2,0 9.61,-1.33 13.21,-4.05 3.57,-2.69 6,-6.14 7.26,-10.34 h -11.93 c -1.75,3.53 -4.68,5.28 -8.78,5.28 -2.86,0 -5.24,-0.88 -7.2,-2.67 -1.95,-1.77 -3.07,-4.25 -3.33,-7.39 h 32.04 c 0.2,-1.25 0.3,-2.67 0.3,-4.25 z"
                        id="path7"/>
                <path
                        style="fill:#017638;stroke:none"
                        d="m 422.42,759.21 c 0,2.67 -0.55,4.98 -1.59,6.87 -1.06,1.92 -2.49,3.39 -4.27,4.4 -1.8,1.03 -3.73,1.53 -5.77,1.53 -2.01,0 -3.9,-0.52 -5.65,-1.57 -1.78,-1.04 -3.19,-2.55 -4.28,-4.51 -1.08,-1.96 -1.62,-4.26 -1.62,-6.89 0,-2.61 0.54,-4.87 1.62,-6.79 1.09,-1.9 2.5,-3.36 4.23,-4.35 1.74,-0.99 3.62,-1.51 5.7,-1.51 2.04,0 3.97,0.52 5.77,1.53 1.78,1.03 3.21,2.5 4.27,4.4 1.04,1.91 1.59,4.22 1.59,6.89 z m -34.5,-0.17 c 0,4.46 0.87,8.4 2.65,11.83 1.77,3.44 4.18,6.09 7.24,7.99 3.05,1.9 6.44,2.82 10.12,2.82 3.28,0 6.16,-0.66 8.63,-1.96 2.47,-1.31 4.38,-3.04 5.77,-5.19 v 6.44 h 11.23 V 722.8 h -11.23 v 20.68 c -1.54,-2.02 -3.6,-3.66 -6.18,-4.91 -2.58,-1.23 -5.29,-1.85 -8.13,-1.85 -3.75,0 -7.16,0.92 -10.21,2.75 -3.06,1.86 -5.47,4.46 -7.24,7.87 -1.78,3.4 -2.65,7.3 -2.65,11.7 z"
                        id="path8"/>
            </g>
            <g
                    id="g19">
                <path
                        style="fill:#017638;stroke:none"
                        d="m 154.66,791.55 v 2.24 h 5.83 v 18.9 h 2.78 v -18.9 h 5.78 v -2.24 z"
                        id="path9"/>
                <path
                        style="fill:#017638;stroke:none"
                        d="m 175.1,793.81 h 4.08 c 1.52,0 2.66,0.35 3.4,1.04 0.74,0.69 1.13,1.66 1.13,2.91 0,1.25 -0.39,2.24 -1.15,2.97 -0.76,0.73 -1.89,1.1 -3.38,1.1 h -4.08 z m 11.75,18.88 -5.35,-8.86 c 1.69,-0.34 2.95,-1.07 3.79,-2.19 0.85,-1.12 1.28,-2.42 1.28,-3.88 0,-1.19 -0.28,-2.24 -0.82,-3.17 -0.57,-0.93 -1.39,-1.66 -2.5,-2.22 -1.12,-0.54 -2.47,-0.82 -4.07,-0.82 h -6.88 v 21.14 h 2.8 v -8.64 h 3.34 l 5.07,8.64 z"
                        id="path10"/>
                <path
                        style="fill:#017638;stroke:none"
                        d="m 191.38,791.55 v 13.34 c 0,1.77 0.35,3.25 1.04,4.46 0.7,1.21 1.65,2.09 2.87,2.67 1.21,0.6 2.55,0.88 4.07,0.88 1.52,0 2.86,-0.28 4.08,-0.88 1.21,-0.58 2.17,-1.46 2.88,-2.67 0.72,-1.21 1.09,-2.69 1.09,-4.46 v -13.34 h -2.78 v 13.38 c 0,1.88 -0.48,3.28 -1.39,4.18 -0.93,0.91 -2.21,1.36 -3.83,1.36 -1.65,0 -2.95,-0.45 -3.86,-1.36 -0.94,-0.9 -1.39,-2.3 -1.39,-4.18 v -13.38 z"
                        id="path11"/>
                <path
                        style="fill:#017638;stroke:none"
                        d="m 218.7,812.9 c 1.45,0 2.71,-0.28 3.8,-0.84 1.08,-0.56 1.88,-1.31 2.45,-2.22 0.54,-0.9 0.82,-1.89 0.82,-2.93 0,-1.31 -0.3,-2.37 -0.91,-3.14 -0.61,-0.78 -1.35,-1.36 -2.21,-1.75 -0.87,-0.36 -2,-0.75 -3.39,-1.14 -1.17,-0.3 -2.06,-0.58 -2.71,-0.84 -0.65,-0.26 -1.17,-0.62 -1.6,-1.12 -0.43,-0.47 -0.65,-1.12 -0.65,-1.9 0,-1.05 0.35,-1.87 1.08,-2.47 0.74,-0.61 1.67,-0.91 2.84,-0.91 1.24,0 2.24,0.32 3,0.93 0.75,0.62 1.19,1.33 1.3,2.13 h 3.03 c -0.17,-1.64 -0.89,-2.95 -2.14,-3.94 -1.28,-0.99 -2.91,-1.49 -4.9,-1.49 -1.39,0 -2.63,0.26 -3.69,0.73 -1.06,0.5 -1.89,1.19 -2.47,2.07 -0.61,0.89 -0.89,1.9 -0.89,3.06 0,1.32 0.28,2.37 0.89,3.15 0.61,0.77 1.32,1.36 2.17,1.7 0.84,0.37 1.97,0.73 3.38,1.1 1.13,0.3 2.04,0.58 2.71,0.84 0.67,0.26 1.23,0.65 1.69,1.16 0.43,0.52 0.67,1.17 0.67,1.96 0,1.04 -0.39,1.9 -1.15,2.55 -0.78,0.64 -1.82,0.97 -3.12,0.97 -1.39,0 -2.45,-0.33 -3.16,-1.02 -0.74,-0.66 -1.15,-1.51 -1.24,-2.5 h -2.97 c 0.02,1.17 0.35,2.18 0.97,3.06 0.63,0.89 1.5,1.58 2.61,2.07 1.1,0.5 2.36,0.73 3.79,0.73 z"
                        id="path12"/>
                <path
                        style="fill:#017638;stroke:none"
                        d="m 229.76,791.55 v 2.24 h 5.83 v 18.9 h 2.77 v -18.9 h 5.79 v -2.24 z"
                        id="path13"/>
                <path
                        style="fill:#017638;stroke:none"
                        d="m 254.41,802.11 c 0,2.07 0.45,3.9 1.38,5.54 0.94,1.63 2.22,2.93 3.84,3.83 1.61,0.93 3.41,1.38 5.4,1.38 2.3,0 4.31,-0.54 6.05,-1.64 1.73,-1.1 2.99,-2.67 3.79,-4.69 h -3.31 c -0.61,1.29 -1.46,2.26 -2.56,2.93 -1.11,0.69 -2.43,1.01 -3.97,1.01 -1.5,0 -2.84,-0.35 -4.01,-1.03 -1.19,-0.69 -2.13,-1.66 -2.8,-2.93 -0.67,-1.25 -1,-2.72 -1,-4.4 0,-1.7 0.33,-3.19 1,-4.46 0.67,-1.25 1.61,-2.22 2.8,-2.91 1.17,-0.69 2.51,-1.03 4.01,-1.03 1.54,0 2.86,0.34 3.97,1.03 1.1,0.69 1.95,1.66 2.56,2.93 h 3.31 c -0.8,-2.02 -2.06,-3.6 -3.79,-4.72 -1.74,-1.12 -3.75,-1.68 -6.05,-1.68 -1.99,0 -3.79,0.48 -5.4,1.4 -1.62,0.93 -2.9,2.22 -3.84,3.86 -0.93,1.66 -1.38,3.51 -1.38,5.58 z"
                        id="path14"/>
                <path
                        style="fill:#017638;stroke:none"
                        d="m 291.55,793.79 v -2.28 H 280.1 v 21.18 h 11.45 v -2.28 h -8.66 v -7.29 h 7.74 v -2.26 h -7.74 v -7.07 z"
                        id="path15"/>
                <path
                        style="fill:#017638;stroke:none"
                        d="m 313.18,791.51 h -2.77 v 16.8 l -11.17,-16.8 h -2.8 v 21.18 h 2.8 v -16.83 l 11.17,16.83 h 2.77 z"
                        id="path16"/>
                <path
                        style="fill:#017638;stroke:none"
                        d="m 317.04,791.55 v 2.24 h 5.83 v 18.9 h 2.78 v -18.9 h 5.79 v -2.24 z"
                        id="path17"/>
                <path
                        style="fill:#017638;stroke:none"
                        d="m 346.14,793.79 v -2.28 h -11.45 v 21.18 h 11.45 v -2.28 h -8.66 v -7.29 h 7.74 v -2.26 h -7.74 v -7.07 z"
                        id="path18"/>
                <path
                        style="fill:#017638;stroke:none"
                        d="m 353.83,793.81 h 4.08 c 1.52,0 2.66,0.35 3.4,1.04 0.74,0.69 1.13,1.66 1.13,2.91 0,1.25 -0.39,2.24 -1.15,2.97 -0.76,0.73 -1.89,1.1 -3.38,1.1 h -4.08 z m 11.75,18.88 -5.35,-8.86 c 1.69,-0.34 2.95,-1.07 3.79,-2.19 0.85,-1.12 1.28,-2.42 1.28,-3.88 0,-1.19 -0.28,-2.24 -0.82,-3.17 -0.57,-0.93 -1.39,-1.66 -2.5,-2.22 -1.12,-0.54 -2.47,-0.82 -4.07,-0.82 h -6.88 v 21.14 h 2.8 v -8.64 h 3.34 l 5.07,8.64 z"
                        id="path19"/>
            </g>
        </g>
    </g>
</svg>
