<?xml version="1.0" encoding="UTF-8" standalone="yes"?>
<!-- Created with sK1/UniConvertor (http://sk1project.org/) -->
<svg xmlns="http://www.w3.org/2000/svg" xmlns:xlink="http://www.w3.org/1999/xlink"
  width="595.276pt" height="841.89pt" viewBox="0 0 595.276 841.89"
  fill-rule="evenodd">
<g>
<g>
<path style="stroke:none; fill:#019245" d="M 72.44 702.37C 34.5 702.37 3.75 732.85 3.75 770.45L 3.75 770.81C 3.75 808.41 34.5 838.89 72.44 838.89C 110.38 838.89 141.13 808.41 141.13 770.81L 141.13 770.45C 141.13 732.85 110.38 702.37 72.44 702.37zM 82.77 735.34C 92.98 735.97 103.17 737.47 113.22 739.85L 96.39 749.46C 88.24 748.26 80 747.66 71.74 747.66C 63.49 747.66 55.25 748.26 47.1 749.46L 30.27 739.85C 40.31 737.47 50.51 735.97 60.72 735.34L 71.74 724.43L 82.77 735.34zM 97.45 797.93C 91.87 806.01 85.54 813.72 78.47 820.96L 78.47 801.94C 83.7 795.62 88.37 789.01 92.47 782.17C 96.6 775.31 100.18 768.21 103.2 760.95L 120.31 751.17C 117.3 760.76 113.44 770.14 108.73 779.19L 112.71 793.88L 97.45 797.93zM 23.18 751.17L 40.29 760.95C 43.31 768.21 46.88 775.3 51.01 782.17C 55.12 789.01 59.79 795.62 65.02 801.94L 65.02 820.96C 57.95 813.72 51.62 806.01 46.04 797.93L 30.77 793.88L 34.75 779.19C 30.05 770.14 26.19 760.76 23.18 751.17zM 51.77 759.81C 65.02 758.11 78.47 758.11 91.72 759.81C 86.51 771.63 79.8 782.7 71.74 792.84C 63.69 782.7 56.98 771.63 51.77 759.81z"/>
<g>
<path style="stroke:none; fill:#017638" d="M 186.51 737.43L 186.51 761.41C 186.51 764.86 185.62 767.53 183.88 769.38C 182.15 771.23 179.74 772.16 176.71 772.16C 173.69 772.16 171.31 771.23 169.57 769.38C 167.84 767.53 166.97 764.86 166.97 761.41L 166.97 737.43L 155.89 737.43L 155.89 762.98C 155.89 766.86 156.63 770.2 158.15 773C 159.64 775.8 161.7 777.93 164.35 779.38C 166.99 780.82 170.03 781.53 173.46 781.53C 176.14 781.53 178.64 780.99 180.94 779.92C 183.23 778.84 185.08 777.37 186.51 775.48L 186.51 780.97L 197.67 780.97L 197.67 737.43L 186.51 737.43z"/>
<path style="stroke:none; fill:#017638" d="M 234.47 736.8C 231.72 736.8 229.2 737.34 226.9 738.42C 224.6 739.5 222.72 740.96 221.24 742.86L 221.24 737.43L 210.19 737.43L 210.19 780.97L 221.24 780.97L 221.24 756.93C 221.24 753.48 222.11 750.81 223.89 748.95C 225.67 747.1 228.07 746.15 231.13 746.15C 234.12 746.15 236.51 747.1 238.24 748.95C 239.98 750.81 240.87 753.48 240.87 756.93L 240.87 780.97L 251.95 780.97L 251.95 755.42C 251.95 749.56 250.32 744.99 247.11 741.71C 243.9 738.44 239.67 736.8 234.47 736.8z"/>
<path style="stroke:none; fill:#017638" d="M 264.07 737.43L 264.07 780.97L 275.12 780.97L 275.12 737.43L 264.07 737.43zM 269.68 732.23C 271.63 732.23 273.24 731.63 274.54 730.4C 275.82 729.17 276.47 727.64 276.47 725.79C 276.47 723.96 275.82 722.43 274.54 721.2C 273.24 719.97 271.63 719.35 269.68 719.35C 267.73 719.35 266.11 719.97 264.8 721.2C 263.5 722.43 262.87 723.96 262.87 725.79C 262.87 727.64 263.5 729.17 264.8 730.4C 266.11 731.63 267.73 732.23 269.68 732.23z"/>
<path style="stroke:none; fill:#017638" d="M 307.5 737.43L 299.82 737.43L 299.82 735.62C 299.82 733.16 300.34 731.46 301.4 730.51C 302.45 729.56 304.33 729.13 307.02 729.17L 307.02 719.91C 300.86 719.76 296.24 720.94 293.19 723.44C 290.11 725.96 288.59 729.89 288.59 735.23L 288.59 737.43L 283.63 737.43L 283.63 746.48L 288.59 746.48L 288.59 780.97L 299.82 780.97L 299.82 746.48L 307.5 746.48L 307.5 737.43z"/>
<path style="stroke:none; fill:#017638" d="M 316.32 737.43L 316.32 780.97L 327.38 780.97L 327.38 737.43L 316.32 737.43zM 321.94 732.23C 323.89 732.23 325.49 731.63 326.8 730.4C 328.08 729.17 328.73 727.64 328.73 725.79C 328.73 723.96 328.08 722.43 326.8 721.2C 325.49 719.97 323.89 719.35 321.94 719.35C 319.99 719.35 318.36 719.97 317.06 721.2C 315.76 722.43 315.13 723.96 315.13 725.79C 315.13 727.64 315.76 729.17 317.06 730.4C 318.36 731.63 319.99 732.23 321.94 732.23z"/>
<path style="stroke:none; fill:#017638" d="M 348.13 755.12C 348.54 752.19 349.69 749.9 351.56 748.24C 353.42 746.61 355.74 745.77 358.5 745.77C 361.4 745.77 363.85 746.63 365.85 748.33C 367.84 750.03 368.88 752.29 368.93 755.12L 348.13 755.12zM 380.39 758.26C 380.39 754.02 379.48 750.25 377.66 746.97C 375.84 743.7 373.3 741.18 370.01 739.39C 366.71 737.62 362.98 736.72 358.82 736.72C 354.49 736.72 350.65 737.64 347.33 739.47C 344.01 741.33 341.43 743.93 339.59 747.34C 337.72 750.74 336.81 754.71 336.81 759.21C 336.81 763.67 337.75 767.59 339.61 771C 341.48 774.4 344.1 777.05 347.46 778.9C 350.8 780.76 354.59 781.68 358.82 781.68C 364.02 781.68 368.43 780.35 372.03 777.63C 375.6 774.94 378.03 771.49 379.29 767.29L 367.36 767.29C 365.61 770.82 362.68 772.57 358.58 772.57C 355.72 772.57 353.34 771.69 351.38 769.9C 349.43 768.13 348.31 765.65 348.05 762.51L 380.09 762.51C 380.29 761.26 380.39 759.84 380.39 758.26z"/>
<path style="stroke:none; fill:#017638" d="M 422.42 759.21C 422.42 761.88 421.87 764.19 420.83 766.08C 419.77 768 418.34 769.47 416.56 770.48C 414.76 771.51 412.83 772.01 410.79 772.01C 408.78 772.01 406.89 771.49 405.14 770.44C 403.36 769.4 401.95 767.89 400.86 765.93C 399.78 763.97 399.24 761.67 399.24 759.04C 399.24 756.43 399.78 754.17 400.86 752.25C 401.95 750.35 403.36 748.89 405.09 747.9C 406.83 746.91 408.71 746.39 410.79 746.39C 412.83 746.39 414.76 746.91 416.56 747.92C 418.34 748.95 419.77 750.42 420.83 752.32C 421.87 754.23 422.42 756.54 422.42 759.21zM 387.92 759.04C 387.92 763.5 388.79 767.44 390.57 770.87C 392.34 774.31 394.75 776.96 397.81 778.86C 400.86 780.76 404.25 781.68 407.93 781.68C 411.21 781.68 414.09 781.02 416.56 779.72C 419.03 778.41 420.94 776.68 422.33 774.53L 422.33 780.97L 433.56 780.97L 433.56 722.8L 422.33 722.8L 422.33 743.48C 420.79 741.46 418.73 739.82 416.15 738.57C 413.57 737.34 410.86 736.72 408.02 736.72C 404.27 736.72 400.86 737.64 397.81 739.47C 394.75 741.33 392.34 743.93 390.57 747.34C 388.79 750.74 387.92 754.64 387.92 759.04z"/>
</g>
<g>
<path style="stroke:none; fill:#017638" d="M 154.66 791.55L 154.66 793.79L 160.49 793.79L 160.49 812.69L 163.27 812.69L 163.27 793.79L 169.05 793.79L 169.05 791.55L 154.66 791.55z"/>
<path style="stroke:none; fill:#017638" d="M 175.1 793.81L 179.18 793.81C 180.7 793.81 181.84 794.16 182.58 794.85C 183.32 795.54 183.71 796.51 183.71 797.76C 183.71 799.01 183.32 800 182.56 800.73C 181.8 801.46 180.67 801.83 179.18 801.83L 175.1 801.83L 175.1 793.81zM 186.85 812.69L 181.5 803.83C 183.19 803.49 184.45 802.76 185.29 801.64C 186.14 800.52 186.57 799.22 186.57 797.76C 186.57 796.57 186.29 795.52 185.75 794.59C 185.18 793.66 184.36 792.93 183.25 792.37C 182.13 791.83 180.78 791.55 179.18 791.55L 172.3 791.55L 172.3 812.69L 175.1 812.69L 175.1 804.05L 178.44 804.05L 183.51 812.69L 186.85 812.69z"/>
<path style="stroke:none; fill:#017638" d="M 191.38 791.55L 191.38 804.89C 191.38 806.66 191.73 808.14 192.42 809.35C 193.12 810.56 194.07 811.44 195.29 812.02C 196.5 812.62 197.84 812.9 199.36 812.9C 200.88 812.9 202.22 812.62 203.44 812.02C 204.65 811.44 205.61 810.56 206.32 809.35C 207.04 808.14 207.41 806.66 207.41 804.89L 207.41 791.55L 204.63 791.55L 204.63 804.93C 204.63 806.81 204.15 808.21 203.24 809.11C 202.31 810.02 201.03 810.47 199.41 810.47C 197.76 810.47 196.46 810.02 195.55 809.11C 194.61 808.21 194.16 806.81 194.16 804.93L 194.16 791.55L 191.38 791.55z"/>
<path style="stroke:none; fill:#017638" d="M 218.7 812.9C 220.15 812.9 221.41 812.62 222.5 812.06C 223.58 811.5 224.38 810.75 224.95 809.84C 225.49 808.94 225.77 807.95 225.77 806.91C 225.77 805.6 225.47 804.54 224.86 803.77C 224.25 802.99 223.51 802.41 222.65 802.02C 221.78 801.66 220.65 801.27 219.26 800.88C 218.09 800.58 217.2 800.3 216.55 800.04C 215.9 799.78 215.38 799.42 214.95 798.92C 214.52 798.45 214.3 797.8 214.3 797.02C 214.3 795.97 214.65 795.15 215.38 794.55C 216.12 793.94 217.05 793.64 218.22 793.64C 219.46 793.64 220.46 793.96 221.22 794.57C 221.97 795.19 222.41 795.9 222.52 796.7L 225.55 796.7C 225.38 795.06 224.66 793.75 223.41 792.76C 222.13 791.77 220.5 791.27 218.51 791.27C 217.12 791.27 215.88 791.53 214.82 792C 213.76 792.5 212.93 793.19 212.35 794.07C 211.74 794.96 211.46 795.97 211.46 797.13C 211.46 798.45 211.74 799.5 212.35 800.28C 212.96 801.05 213.67 801.64 214.52 801.98C 215.36 802.35 216.49 802.71 217.9 803.08C 219.03 803.38 219.94 803.66 220.61 803.92C 221.28 804.18 221.84 804.57 222.3 805.08C 222.73 805.6 222.97 806.25 222.97 807.04C 222.97 808.08 222.58 808.94 221.82 809.59C 221.04 810.23 220 810.56 218.7 810.56C 217.31 810.56 216.25 810.23 215.54 809.54C 214.8 808.88 214.39 808.03 214.3 807.04L 211.33 807.04C 211.35 808.21 211.68 809.22 212.3 810.1C 212.93 810.99 213.8 811.68 214.91 812.17C 216.01 812.67 217.27 812.9 218.7 812.9z"/>
<path style="stroke:none; fill:#017638" d="M 229.76 791.55L 229.76 793.79L 235.59 793.79L 235.59 812.69L 238.36 812.69L 238.36 793.79L 244.15 793.79L 244.15 791.55L 229.76 791.55z"/>
<path style="stroke:none; fill:#017638" d="M 254.41 802.11C 254.41 804.18 254.86 806.01 255.79 807.65C 256.73 809.28 258.01 810.58 259.63 811.48C 261.24 812.41 263.04 812.86 265.03 812.86C 267.33 812.86 269.34 812.32 271.08 811.22C 272.81 810.12 274.07 808.55 274.87 806.53L 271.56 806.53C 270.95 807.82 270.1 808.79 269 809.46C 267.89 810.15 266.57 810.47 265.03 810.47C 263.53 810.47 262.19 810.12 261.02 809.44C 259.83 808.75 258.89 807.78 258.22 806.51C 257.55 805.26 257.22 803.79 257.22 802.11C 257.22 800.41 257.55 798.92 258.22 797.65C 258.89 796.4 259.83 795.43 261.02 794.74C 262.19 794.05 263.53 793.71 265.03 793.71C 266.57 793.71 267.89 794.05 269 794.74C 270.1 795.43 270.95 796.4 271.56 797.67L 274.87 797.67C 274.07 795.65 272.81 794.07 271.08 792.95C 269.34 791.83 267.33 791.27 265.03 791.27C 263.04 791.27 261.24 791.75 259.63 792.67C 258.01 793.6 256.73 794.89 255.79 796.53C 254.86 798.19 254.41 800.04 254.41 802.11z"/>
<path style="stroke:none; fill:#017638" d="M 291.55 793.79L 291.55 791.51L 280.1 791.51L 280.1 812.69L 291.55 812.69L 291.55 810.41L 282.89 810.41L 282.89 803.12L 290.63 803.12L 290.63 800.86L 282.89 800.86L 282.89 793.79L 291.55 793.79z"/>
<path style="stroke:none; fill:#017638" d="M 313.18 791.51L 310.41 791.51L 310.41 808.31L 299.24 791.51L 296.44 791.51L 296.44 812.69L 299.24 812.69L 299.24 795.86L 310.41 812.69L 313.18 812.69L 313.18 791.51z"/>
<path style="stroke:none; fill:#017638" d="M 317.04 791.55L 317.04 793.79L 322.87 793.79L 322.87 812.69L 325.65 812.69L 325.65 793.79L 331.44 793.79L 331.44 791.55L 317.04 791.55z"/>
<path style="stroke:none; fill:#017638" d="M 346.14 793.79L 346.14 791.51L 334.69 791.51L 334.69 812.69L 346.14 812.69L 346.14 810.41L 337.48 810.41L 337.48 803.12L 345.22 803.12L 345.22 800.86L 337.48 800.86L 337.48 793.79L 346.14 793.79z"/>
<path style="stroke:none; fill:#017638" d="M 353.83 793.81L 357.91 793.81C 359.43 793.81 360.57 794.16 361.31 794.85C 362.05 795.54 362.44 796.51 362.44 797.76C 362.44 799.01 362.05 800 361.29 800.73C 360.53 801.46 359.4 801.83 357.91 801.83L 353.83 801.83L 353.83 793.81zM 365.58 812.69L 360.23 803.83C 361.92 803.49 363.18 802.76 364.02 801.64C 364.87 800.52 365.3 799.22 365.3 797.76C 365.3 796.57 365.02 795.52 364.48 794.59C 363.91 793.66 363.09 792.93 361.98 792.37C 360.86 791.83 359.51 791.55 357.91 791.55L 351.03 791.55L 351.03 812.69L 353.83 812.69L 353.83 804.05L 357.17 804.05L 362.24 812.69L 365.58 812.69z"/>
</g>
</g>
</g>
</svg>